<svg width="44" height="44" viewBox="0 0 44 44" fill="none" xmlns="http://www.w3.org/2000/svg">
<g clip-path="url(#clip0_26:17)">
<path d="M29.1871 39.7416V32.7776C29.2546 31.9196 29.1387 31.057 28.847 30.2472C28.5554 29.4374 28.0947 28.699 27.4956 28.081C33.1459 27.4512 39.0842 25.3099 39.0842 15.4848C39.0837 12.9724 38.1173 10.5564 36.385 8.73682C37.2053 6.53879 37.1473 4.10923 36.223 1.95285C36.223 1.95285 34.0996 1.32303 29.1871 4.61605C25.0628 3.49826 20.7152 3.49826 16.5909 4.61605C11.6783 1.32303 9.55497 1.95285 9.55497 1.95285C8.63072 4.10923 8.57272 6.53879 9.39302 8.73682C7.64777 10.5699 6.68037 13.0078 6.69382 15.5388C6.69382 25.2919 12.6321 27.4332 18.2824 28.135C17.6903 28.7468 17.2338 29.4764 16.9423 30.2762C16.6509 31.0761 16.5311 31.9284 16.5909 32.7776V39.7416M16.5909 34.3432C7.59356 37.0424 7.59356 29.8445 3.99463 28.9448L16.5909 34.3432Z" stroke="white" stroke-width="3" stroke-linecap="round" stroke-linejoin="round"/>
</g>
<defs>
<clipPath id="clip0_26:17">
<rect width="43.1871" height="43.1871" fill="white" transform="translate(0.395691 0.153381)"/>
</clipPath>
</defs>
</svg>
