<svg width="48" height="48" viewBox="0 0 48 48" fill="none" xmlns="http://www.w3.org/2000/svg">
<path d="M33.9337 4.10046H14.0449C8.55272 4.10046 4.10046 8.55272 4.10046 14.0449V33.9337C4.10046 39.4258 8.55272 43.8781 14.0449 43.8781H33.9337C39.4258 43.8781 43.8781 39.4258 43.8781 33.9337V14.0449C43.8781 8.55272 39.4258 4.10046 33.9337 4.10046Z" stroke="white" stroke-width="3" stroke-linecap="round" stroke-linejoin="round"/>
<path d="M31.9447 22.7363C32.1902 24.3915 31.9075 26.082 31.1368 27.5673C30.3661 29.0526 29.1467 30.2571 27.652 31.0094C26.1573 31.7617 24.4635 32.0236 22.8114 31.7577C21.1593 31.4919 19.6331 30.7119 18.4499 29.5286C17.2666 28.3454 16.4866 26.8192 16.2208 25.1671C15.955 23.515 16.2168 21.8212 16.9691 20.3265C17.7214 18.8318 18.9259 17.6124 20.4112 16.8417C21.8965 16.071 23.587 15.7883 25.2422 16.0338C26.9306 16.2841 28.4937 17.0709 29.7007 18.2778C30.9076 19.4848 31.6944 21.0479 31.9447 22.7363Z" stroke="white" stroke-width="3" stroke-linecap="round" stroke-linejoin="round"/>
<path d="M34.9281 13.0504H34.9476" stroke="white" stroke-width="3" stroke-linecap="round" stroke-linejoin="round"/>
</svg>
