<svg width="42" height="42" viewBox="0 0 42 42" fill="none" xmlns="http://www.w3.org/2000/svg">
<path d="M28.2086 13.7914C30.9214 13.7914 33.5231 14.8691 35.4413 16.7873C37.3595 18.7055 38.4372 21.3072 38.4372 24.0199V35.9532H31.6181V24.0199C31.6181 23.1157 31.2589 22.2485 30.6195 21.6091C29.9801 20.9696 29.1129 20.6104 28.2086 20.6104C27.3044 20.6104 26.4372 20.9696 25.7977 21.6091C25.1583 22.2485 24.7991 23.1157 24.7991 24.0199V35.9532H17.9801V24.0199C17.9801 21.3072 19.0577 18.7055 20.976 16.7873C22.8942 14.8691 25.4959 13.7914 28.2086 13.7914V13.7914Z" stroke="white" stroke-width="3" stroke-linecap="round" stroke-linejoin="round"/>
<path d="M11.1611 15.4962H4.34204V35.9532H11.1611V15.4962Z" stroke="white" stroke-width="3" stroke-linecap="round" stroke-linejoin="round"/>
<path d="M7.75155 10.3819C9.63457 10.3819 11.1611 8.85543 11.1611 6.97241C11.1611 5.08939 9.63457 3.5629 7.75155 3.5629C5.86853 3.5629 4.34204 5.08939 4.34204 6.97241C4.34204 8.85543 5.86853 10.3819 7.75155 10.3819Z" stroke="white" stroke-width="3" stroke-linecap="round" stroke-linejoin="round"/>
</svg>
